<?xml version="1.0" encoding="iso-8859-1"?>
<!-- Generator: Adobe Illustrator 16.0.0, SVG Export Plug-In . SVG Version: 6.00 Build 0)  -->
<!DOCTYPE svg PUBLIC "-//W3C//DTD SVG 1.1//EN" "http://www.w3.org/Graphics/SVG/1.1/DTD/svg11.dtd">
<svg version="1.1" id="Capa_1" xmlns="http://www.w3.org/2000/svg" xmlns:xlink="http://www.w3.org/1999/xlink" x="0px" y="0px"
	 width="400.242px" height="400.242px" viewBox="0 0 400.242 400.242" style="enable-background:new 0 0 400.242 400.242;"
	 xml:space="preserve">
<g>
	<g>
		<path d="M19.085,111.508c-0.339-0.113-0.699-0.178-1.063-0.21c-9.914-0.937-17.378-9.089-17.378-18.963
			c0-10.576,8.607-19.177,19.174-19.177c1.026,0,2.015,0.163,3.005,0.323c2.119,0.339,4.278-0.646,5.412-2.483
			c1.14-1.846,1.061-4.191-0.204-5.956c-3.36-4.683-5.134-10.15-5.134-15.793c0-15.013,12.212-27.231,27.229-27.231
			c12.228,0,22.995,8.31,26.181,20.215c0.399,1.496,1.436,2.759,2.834,3.441c1.397,0.683,3.021,0.724,4.455,0.113
			c3.382-1.435,6.962-2.154,10.642-2.154c15.017,0,27.229,12.212,27.229,27.225c0,5.714-1.835,11.245-5.297,15.99
			c-0.483,0.661-0.805,1.425-0.949,2.231c-2.318,13.005-13.557,22.444-26.744,22.444L19.085,111.508L19.085,111.508z"/>
		<path d="M275.696,9.385c35.346,0,64.107,28.759,64.107,64.101c0,31.323-23.308,58.56-54.206,63.345
			c-1.916,0.302-3.391,1.64-4.074,3.333L232.751,63.74c-0.01-0.005-0.01-0.011-0.01-0.016c0-0.005-0.011-0.005-0.011-0.011
			l-13.312-20.871C230.688,22.2,252.181,9.385,275.696,9.385z"/>
		<path d="M179.331,0l41.525,65.08l-12.797,8.38l-20.702-20.035c-0.195-0.188-0.446-0.273-0.657-0.42
			c-0.296-0.21-0.569-0.43-0.897-0.575c-0.323-0.139-0.656-0.215-1-0.289c-0.328-0.077-0.646-0.163-0.979-0.173
			c-0.354-0.016-0.688,0.049-1.038,0.113c-0.333,0.052-0.656,0.091-0.979,0.209c-0.338,0.118-0.627,0.318-0.944,0.509
			c-0.226,0.136-0.478,0.2-0.688,0.367l-24.502,20.421l-12.551-8.583L179.331,0z"/>
		<path d="M137.876,74.429l15.089,10.315c0.171,0.118,0.37,0.17,0.554,0.268c0.165,0.087,0.322,0.167,0.499,0.242
			c0.646,0.26,1.307,0.431,1.979,0.431h0.005c0,0,0,0,0.005,0c0.005,0,0.016-0.006,0.021-0.006c0.534-0.005,1.056-0.112,1.565-0.273
			c0.146-0.044,0.28-0.097,0.419-0.152c0.452-0.181,0.882-0.42,1.273-0.73c0.049-0.04,0.113-0.05,0.163-0.092l23.908-19.926
			l20.314,19.664c0.016,0.016,0.044,0.021,0.054,0.037c0.45,0.431,0.979,0.749,1.529,0.99c0.138,0.062,0.263,0.112,0.399,0.149
			c0.566,0.194,1.146,0.333,1.743,0.339c0.005,0,0.005,0,0.01,0l0,0c0,0,0,0,0.006,0c0.615,0,1.233-0.145,1.82-0.365
			c0.18-0.066,0.337-0.15,0.517-0.236c0.198-0.097,0.408-0.158,0.598-0.282l16.282-10.664l81.45,127.641h-91.716v-28.036
			l9.564,8.103c1.008,0.853,2.246,1.273,3.464,1.273c1.532,0,3.044-0.646,4.114-1.903c1.911-2.262,1.644-5.654-0.613-7.578
			l-16.514-13.995v-15.215l9.243,9.24c1.046,1.047,2.42,1.575,3.801,1.575c1.375,0,2.761-0.528,3.8-1.575
			c2.111-2.103,2.111-5.499,0-7.601L216.38,129.23v-13.305l9.032,10.15c1.057,1.193,2.542,1.8,4.012,1.8
			c1.265,0,2.551-0.446,3.563-1.354c2.226-1.974,2.426-5.369,0.457-7.59l-18.42-20.717c-0.042-0.042-0.099-0.058-0.12-0.097
			c-0.29-0.302-0.63-0.504-0.981-0.735c-0.241-0.164-0.462-0.368-0.725-0.486c-0.049-0.021-0.09-0.063-0.132-0.084
			c-0.31-0.121-0.618-0.126-0.94-0.189c-0.33-0.076-0.623-0.178-0.966-0.188c-0.355-0.011-0.696,0.082-1.039,0.133
			c-0.34,0.06-0.661,0.082-0.991,0.195c-0.073,0.021-0.12,0.026-0.195,0.055c-0.33,0.134-0.561,0.365-0.85,0.557
			c-0.215,0.136-0.462,0.209-0.662,0.388c-0.041,0.037-0.052,0.087-0.099,0.118c-0.042,0.031-0.101,0.065-0.138,0.107L186.476,118.7
			c-2.103,2.102-2.103,5.499,0,7.601c1.047,1.047,2.425,1.574,3.8,1.574c1.376,0,2.754-0.527,3.801-1.574l11.537-11.536v14.229
			l-18.846,16.229c-2.251,1.935-2.507,5.331-0.564,7.58c1.063,1.234,2.57,1.875,4.073,1.875c1.242,0,2.494-0.431,3.504-1.3
			l11.833-10.191v16.287l-18.573,13.997c-2.37,1.791-2.842,5.155-1.058,7.521c1.053,1.404,2.667,2.139,4.3,2.139
			c1.123,0,2.262-0.349,3.23-1.079l12.105-9.118v28.857h-54.211v-11.925l9.561,8.102c1.011,0.853,2.248,1.27,3.473,1.27
			c1.527,0,3.045-0.643,4.107-1.899c1.919-2.269,1.641-5.667-0.625-7.586l-16.512-13.987v-15.221l9.241,9.239
			c1.048,1.048,2.423,1.575,3.798,1.575c1.377,0,2.753-0.527,3.8-1.575c2.103-2.102,2.103-5.494,0-7.601l-16.84-16.84v-13.305
			l9.026,10.15c1.058,1.192,2.536,1.801,4.014,1.801c1.27,0,2.548-0.446,3.569-1.354c2.22-1.975,2.42-5.371,0.446-7.591
			l-18.416-20.717c-0.037-0.043-0.086-0.06-0.124-0.098c-0.275-0.291-0.613-0.488-0.947-0.709c-0.257-0.173-0.483-0.393-0.761-0.517
			c-0.05-0.021-0.087-0.058-0.137-0.077c-0.273-0.113-0.564-0.113-0.848-0.17c-0.354-0.087-0.692-0.2-1.06-0.205
			c-0.329-0.01-0.638,0.082-0.966,0.124c-0.357,0.055-0.711,0.082-1.049,0.205c-0.063,0.021-0.124,0.026-0.187,0.052
			c-0.318,0.132-0.56,0.368-0.845,0.554c-0.221,0.142-0.468,0.21-0.673,0.394c-0.042,0.038-0.052,0.087-0.091,0.118
			c-0.042,0.038-0.103,0.061-0.139,0.103l-20.711,20.711c-2.103,2.103-2.103,5.499,0,7.602c1.046,1.047,2.425,1.575,3.8,1.575
			c1.375,0,2.753-0.528,3.801-1.575l11.536-11.536v14.229l-18.846,16.228c-2.252,1.935-2.506,5.331-0.564,7.578
			c1.062,1.236,2.569,1.876,4.073,1.876c1.242,0,2.493-0.43,3.503-1.302l11.833-10.188v16.286l-18.573,13.987
			c-2.37,1.785-2.842,5.155-1.057,7.525c1.052,1.409,2.665,2.141,4.299,2.141c1.123,0,2.257-0.352,3.23-1.084l12.105-9.115v12.745
			H66.939L137.876,74.429z"/>
		<path d="M15.591,260.743c1.375,0,2.754-0.524,3.801-1.575l14.997-14.992l13.654,13.648c1.047,1.05,2.426,1.574,3.801,1.574
			s2.75-0.524,3.801-1.574l16.916-16.908l15.573,15.565c1.046,1.05,2.424,1.574,3.8,1.574c1.375,0,2.75-0.524,3.801-1.574
			c2.102-2.096,2.102-5.486,0-7.603l-19.373-19.376c-2.103-2.099-5.499-2.099-7.601,0l-16.917,16.914L38.191,232.77
			c-2.103-2.111-5.499-2.111-7.601,0l-18.799,18.792c-2.1,2.11-2.1,5.491,0,7.601C12.841,260.224,14.222,260.743,15.591,260.743z"/>
		<path d="M274.354,373.432c1.376,0,2.75-0.535,3.8-1.574l14.994-14.992l13.657,13.647c1.044,1.041,2.421,1.576,3.802,1.576
			c1.374,0,2.75-0.535,3.795-1.576l16.913-16.913l15.571,15.57c1.038,1.039,2.425,1.574,3.799,1.574
			c1.376,0,2.751-0.535,3.802-1.574c2.099-2.111,2.099-5.502,0-7.602l-19.381-19.375c-2.101-2.105-5.492-2.105-7.601,0
			l-16.903,16.908l-13.66-13.659c-2.11-2.101-5.49-2.101-7.601,0l-18.794,18.804c-2.099,2.109-2.099,5.495,0,7.602
			C271.598,372.912,272.978,373.432,274.354,373.432z"/>
		<path d="M317.886,400.242c1.376,0,2.752-0.532,3.802-1.576l14.992-14.997l13.659,13.654c1.039,1.044,2.426,1.574,3.8,1.574
			c1.376,0,2.751-0.53,3.802-1.574l16.914-16.909l15.563,15.564c1.039,1.044,2.425,1.574,3.802,1.574
			c1.374,0,2.755-0.53,3.799-1.574c2.106-2.094,2.106-5.485,0-7.597l-19.375-19.37c-2.111-2.109-5.496-2.109-7.602,0l-16.908,16.908
			l-13.659-13.659c-2.1-2.104-5.485-2.104-7.6,0l-18.788,18.804c-2.116,2.106-2.116,5.497,0,7.597
			C315.136,399.721,316.512,400.242,317.886,400.242z"/>
		<path d="M183.623,339.448c104.92,0,104.92-11.413,104.92-15.155v-27.912c0.2-0.651,0.2-1.228,0.2-1.68
			c0-3.559-0.075-14.016-89.926-15.065l6.103-6.115c0.125,0.016,0.252,0.089,0.388,0.089c2.059,0,4.126-0.787,5.702-2.356
			l18.635-18.646c3.15-3.155,3.15-8.258,0-11.403c-3.149-3.149-8.253-3.149-11.402,0l-18.646,18.625
			c-1.676,1.686-2.391,3.911-2.283,6.096l-13.612,13.61c-71.143,0-93.978,5.267-101.319,9.806c-0.045,0-0.082-0.025-0.131-0.025
			c-2.971,0-5.375,2.404-5.375,5.375v27.045c0,1.659,0.797,3.077,1.979,4.074c0.827,3.296,6.36,8.804,43.063,11.712l-21.1,21.103
			c-3.15,3.14-3.15,8.253,0,11.4c1.575,1.576,3.641,2.358,5.704,2.358c2.065,0,4.128-0.787,5.703-2.358l22.636-22.635
			c1.676-1.675,2.393-3.9,2.291-6.09l2.704-2.703C151.906,339.127,166.312,339.448,183.623,339.448z M266.711,294.69
			c-15.675,2.321-44.626,4.41-82.896,4.41c-1.509,0-2.977-0.011-4.455-0.021l8.783-8.782
			C224.248,290.449,251.628,292.454,266.711,294.69z M172.883,290.344l-8.56,8.557c-28.644-0.556-50.523-2.314-63.402-4.21
			C115.052,292.603,140.032,290.701,172.883,290.344z"/>
	</g>
</g>
<g>
</g>
<g>
</g>
<g>
</g>
<g>
</g>
<g>
</g>
<g>
</g>
<g>
</g>
<g>
</g>
<g>
</g>
<g>
</g>
<g>
</g>
<g>
</g>
<g>
</g>
<g>
</g>
<g>
</g>
</svg>
