<?xml version="1.0" encoding="iso-8859-1"?>
<!-- Generator: Adobe Illustrator 19.0.0, SVG Export Plug-In . SVG Version: 6.00 Build 0)  -->
<svg version="1.1" id="Layer_1" xmlns="http://www.w3.org/2000/svg" xmlns:xlink="http://www.w3.org/1999/xlink" x="0px" y="0px"
	 viewBox="0 0 512 512" style="enable-background:new 0 0 512 512;" xml:space="preserve">
<g>
	<g>
		<path d="M440.45,335.98L374.696,43.114c-1.298-5.784-5.362-10.558-10.865-12.763c-5.498-2.206-11.734-1.562-16.673,1.723
			l-51.442,34.239c-8.275,5.508-10.519,16.681-5.011,24.958c5.508,8.275,16.68,10.519,24.959,5.011l29.643-19.729l41.685,185.663
			l-96.407,129.22h-89.224c-4.073-31.294-18.84-59.895-42.337-81.527c-26.483-24.38-60.885-36.98-96.843-35.5
			c-9.933,0.41-17.651,8.796-17.241,18.729c0.412,9.933,8.775,17.639,18.729,17.242c26.362-1.087,51.562,8.149,70.973,26.016
			c16.034,14.76,26.506,33.953,30.286,55.04h-20.154c-8.05-31.857-36.946-55.506-71.268-55.506C32.975,335.931,0,368.905,0,409.436
			c0,40.532,32.975,73.506,73.506,73.506c34.322,0,63.218-23.649,71.268-55.506h154.84c5.681,0,11.029-2.682,14.427-7.236
			l83.341-111.708l7.944,35.38c-23.907,12.144-40.337,36.964-40.337,65.564c0,40.531,32.975,73.506,73.506,73.506
			S512,449.967,512,409.436C512,369.561,480.078,337.024,440.45,335.98z M73.506,427.437h32.892
			c-6.382,11.614-18.731,19.505-32.892,19.505c-20.68,0-37.505-16.826-37.505-37.505s16.826-37.505,37.505-37.505
			c14.161,0,26.511,7.891,32.893,19.505H73.506c-9.941,0-18,8.059-18,18C55.506,419.377,63.565,427.437,73.506,427.437z
			 M438.494,446.942c-20.68,0-37.505-16.825-37.505-37.505c0-11.195,4.937-21.254,12.741-28.132l7.201,32.075
			c1.879,8.372,9.31,14.061,17.547,14.061c1.306,0,2.632-0.144,3.96-0.442c9.7-2.178,15.797-11.807,13.62-21.507l-7.206-32.096
			c15.657,4.507,27.148,18.952,27.148,36.039C475.999,430.116,459.175,446.942,438.494,446.942z"/>
	</g>
</g>
<g>
</g>
<g>
</g>
<g>
</g>
<g>
</g>
<g>
</g>
<g>
</g>
<g>
</g>
<g>
</g>
<g>
</g>
<g>
</g>
<g>
</g>
<g>
</g>
<g>
</g>
<g>
</g>
<g>
</g>
</svg>
